<?xml version="1.0" encoding="utf-8"?>
<!-- Generator: Adobe Illustrator 19.0.0, SVG Export Plug-In . SVG Version: 6.00 Build 0)  -->
<svg version="1.1" id="Capa_1" xmlns="http://www.w3.org/2000/svg" xmlns:xlink="http://www.w3.org/1999/xlink" x="0px" y="0px"
	 viewBox="0 0 140 60" style="enable-background:new 0 0 140 60;" xml:space="preserve">
<style type="text/css">
	.st0{fill:#F9DA41;}
</style>
<g id="XMLID_2_">
	<g id="XMLID_68_">
		<path id="XMLID_35_" class="st0" d="M1.7,44.8c2.6-7.4,4.1-15.1,6.7-22.5c-1,0-1.9,0-2.9,0c1.8,7.1,4,14,6.5,20.8
			c0.5,1.3,2,1.4,2.7,0.4c4.5-6.3,4-15,9.4-20.6c-0.8-0.2-1.7-0.4-2.5-0.7c1.5,7.1,3.5,14.1,5.9,20.9c0.4,1.1,1.7,1.5,2.5,0.7
			c6.2-6.1,6-15.6,11.5-22c-0.8-0.2-1.7-0.4-2.5-0.7c3,7.4,5.9,14.8,8.9,22.1c0.6,1.4,2.3,1.4,2.9,0c2.9-7,5.9-14,8.8-21
			c-0.9,0.1-1.8,0.2-2.7,0.4c3,7,6.1,14,9.1,20.9c0.4,1,2.1,0.9,2.6,0c3.8-7.5,7.1-15.2,10.1-23c-1,0-1.9,0-2.9,0
			C78.1,29,81.7,36.8,86.7,44c0.6,0.8,2.1,1.1,2.6,0c3.8-7.8,7.6-15.5,11.4-23.3c-0.9-0.1-1.8-0.2-2.7-0.4
			c2.6,8.2,5.7,16.1,9.2,23.9c0.4,1,2.1,1,2.6,0c3.8-8.1,6.8-16.3,9.3-24.9c-1,0-1.9,0-2.9,0c2.4,7.6,4.9,15.2,7.3,22.9
			c0.4,1.2,2.1,1.6,2.7,0.4c3.8-7.5,6.1-15.5,9.3-23.2c-1,0-1.9,0-2.9,0c1.2,8.7,3.6,17,6,25.4c0.5,1.9,3.4,1.1,2.9-0.8
			c-2.4-8.4-4.8-16.8-6-25.4c-0.2-1.7-2.4-1.2-2.9,0c-3,7.5-5.3,15.3-9,22.5c0.9,0.1,1.8,0.2,2.7,0.4c-2.4-7.6-4.9-15.2-7.3-22.9
			c-0.4-1.4-2.5-1.5-2.9,0c-2.4,8.3-5.3,16.3-9,24.2c0.9,0,1.7,0,2.6,0c-3.4-7.6-6.4-15.3-8.9-23.2c-0.4-1.1-2.1-1.6-2.7-0.4
			c-3.8,7.8-7.6,15.5-11.4,23.3c0.9,0,1.7,0,2.6,0c-4.9-7-8.4-14.5-10.6-22.7c-0.4-1.5-2.4-1.3-2.9,0c-2.9,7.6-6.2,15-9.8,22.3
			c0.9,0,1.7,0,2.6,0c-3-7-6.1-14-9.1-20.9c-0.6-1.3-2.3-0.7-2.7,0.4c-2.9,7-5.9,14-8.8,21c1,0,1.9,0,2.9,0
			c-3-7.4-5.9-14.8-8.9-22.1c-0.4-0.9-1.7-1.6-2.5-0.7c-5.6,6.5-5.4,16.1-11.5,22c0.8,0.2,1.7,0.4,2.5,0.7
			C28,35.5,26,28.6,24.5,21.5c-0.2-1.1-1.8-1.4-2.5-0.7c-5.7,5.9-5.2,14.7-9.9,21.2c0.9,0.1,1.8,0.2,2.7,0.4
			c-2.5-6.8-4.7-13.8-6.5-20.8C8,20,6,20.2,5.5,21.5C2.9,28.9,1.4,36.6-1.2,44C-1.8,45.8,1.1,46.6,1.7,44.8L1.7,44.8z"/>
	</g>
</g>
</svg>
